<svg width="15" height="20" viewBox="0 0 15 20" fill="none" xmlns="http://www.w3.org/2000/svg">
<path d="M12.9688 0.125H2.03125C1.61685 0.125 1.21942 0.28962 0.926396 0.582646C0.63337 0.875671 0.46875 1.2731 0.46875 1.6875V18.875C0.468819 19.0144 0.506199 19.1513 0.57701 19.2714C0.64782 19.3915 0.749482 19.4905 0.871445 19.558C0.993408 19.6256 1.13123 19.6593 1.2706 19.6556C1.40998 19.6519 1.54583 19.611 1.66406 19.5371L7.5 15.8896L13.3369 19.5371C13.4551 19.6108 13.5909 19.6515 13.7301 19.655C13.8693 19.6585 14.007 19.6248 14.1288 19.5573C14.2506 19.4898 14.3521 19.3909 14.4229 19.2709C14.4937 19.151 14.5311 19.0143 14.5312 18.875V1.6875C14.5312 1.2731 14.3666 0.875671 14.0736 0.582646C13.7806 0.28962 13.3832 0.125 12.9688 0.125ZM12.9688 1.6875V12.7783L7.91309 9.61914C7.78892 9.54154 7.64545 9.50039 7.49902 9.50039C7.3526 9.50039 7.20913 9.54154 7.08496 9.61914L2.03125 12.7773V1.6875H12.9688ZM7.91309 14.3066C7.78892 14.229 7.64545 14.1879 7.49902 14.1879C7.3526 14.1879 7.20913 14.229 7.08496 14.3066L2.03125 17.4658V14.6201L7.5 11.2021L12.9688 14.6201V17.4658L7.91309 14.3066Z" fill="#F3F3F3"/>
</svg>
