<svg width="25" height="22" viewBox="0 0 25 22" fill="none" xmlns="http://www.w3.org/2000/svg">
<path d="M15.3851 19.6379C18.1088 17.5941 22.0395 14.3945 23.6775 11.8355C24.9031 9.92378 25.3018 7.55528 24.7688 5.35307C23.6298 0.336646 17.3227 -1.71318 13.394 1.64852C13.173 1.83634 12.9694 2.04455 12.7603 2.25835C12.675 2.34561 12.5887 2.43378 12.5 2.52188C12.4113 2.43378 12.325 2.34559 12.2397 2.25834C12.0306 2.04455 11.827 1.83634 11.606 1.64852C7.67733 -1.71318 1.37023 0.336646 0.231247 5.35307C-0.301841 7.55528 0.0968966 9.92378 1.32256 11.8355C2.96053 14.3945 6.89118 17.5941 9.61495 19.6379C10.3739 20.2075 12.5 21.6912 12.5 21.6912C12.5 21.6912 14.6261 20.2075 15.3851 19.6379Z" fill="#727276"/>
</svg>
