<svg width="25" height="23" viewBox="0 0 25 23" fill="none" xmlns="http://www.w3.org/2000/svg">
<path d="M15.3851 20.0202C18.1088 17.9765 22.0395 14.7768 23.6775 12.2179C24.9031 10.3061 25.3018 7.9376 24.7688 5.73539C23.6298 0.71897 17.3227 -1.33086 13.394 2.03085C13.173 2.21866 12.9694 2.42688 12.7603 2.64067C12.675 2.72793 12.5887 2.8161 12.5 2.9042C12.4113 2.8161 12.325 2.72792 12.2397 2.64066C12.0306 2.42688 11.827 2.21866 11.606 2.03085C7.67733 -1.33086 1.37023 0.71897 0.231247 5.73539C-0.301841 7.9376 0.0968966 10.3061 1.32256 12.2179C2.96053 14.7768 6.89118 17.9765 9.61495 20.0202C10.3739 20.5898 12.5 22.0735 12.5 22.0735C12.5 22.0735 14.6261 20.5898 15.3851 20.0202Z" fill="#CC2F26"/>
</svg>
