<svg width="25" height="25" viewBox="0 0 25 25" fill="none" xmlns="http://www.w3.org/2000/svg">
<path d="M12.5 2.34375C10.7466 2.34337 9.02289 2.79696 7.49675 3.66038C5.97061 4.5238 4.69401 5.76763 3.7912 7.2708C2.8884 8.77397 2.39014 10.4853 2.34493 12.2381C2.29972 13.991 2.7091 15.7257 3.53322 17.2734L2.42482 20.5986C2.33301 20.8739 2.31969 21.1694 2.38635 21.4518C2.453 21.7343 2.59701 21.9926 2.80222 22.1978C3.00743 22.403 3.26574 22.547 3.54819 22.6137C3.83064 22.6803 4.12608 22.667 4.40139 22.5752L7.72658 21.4668C9.08866 22.1913 10.5979 22.5959 12.1397 22.65C13.6815 22.7041 15.2154 22.4062 16.6249 21.779C18.0344 21.1518 19.2825 20.2117 20.2744 19.0302C21.2664 17.8486 21.9761 16.4565 22.3498 14.9597C22.7234 13.4629 22.7511 11.9006 22.4308 10.3914C22.1105 8.8823 21.4506 7.46595 20.5012 6.24992C19.5518 5.03388 18.3379 4.05012 16.9515 3.3733C15.5651 2.69647 14.0428 2.34438 12.5 2.34375ZM12.5 21.0938C10.9893 21.0948 9.505 20.6969 8.19729 19.9404C8.10154 19.8849 7.99509 19.8504 7.88498 19.8391C7.77488 19.8278 7.66363 19.84 7.55861 19.875L3.90627 21.0938L5.12404 17.4414C5.15915 17.3365 5.17155 17.2252 5.16044 17.1151C5.14933 17.005 5.11495 16.8986 5.05959 16.8027C4.1123 15.165 3.73196 13.2603 3.97759 11.3843C4.22321 9.50834 5.08107 7.76584 6.41807 6.42714C7.75508 5.08844 9.4965 4.22839 11.3722 3.98039C13.2479 3.7324 15.153 4.11033 16.7919 5.05555C18.4309 6.00078 19.7122 7.46046 20.4369 9.20816C21.1616 10.9559 21.2894 12.8939 20.8002 14.7216C20.3111 16.5493 19.2326 18.1645 17.7318 19.3166C16.2311 20.4688 14.392 21.0934 12.5 21.0938Z" fill="#F3F3F3"/>
</svg>
